<?xml version="1.0" encoding="UTF-8"?>
<svg version="1.1" xmlns="http://www.w3.org/2000/svg" width="1184" height="530">
<path d="M0 0 C390.72 0 781.44 0 1184 0 C1184 174.9 1184 349.8 1184 530 C793.28 530 402.56 530 0 530 C0 355.1 0 180.2 0 0 Z " fill="#000000" transform="translate(0,0)"/>
<path d="M0 0 C22.81222036 19.19960895 24.70418275 55.32522644 27.1875 82.75 C28.08031658 94.14903221 28.33672179 105.47611427 28.33276367 116.9050293 C28.33576499 118.66326975 28.33916971 120.42150956 28.34294128 122.17974854 C28.35169137 126.9099398 28.3541157 131.64011292 28.35475707 136.3703115 C28.35547326 139.34291819 28.3576183 142.31552042 28.36025429 145.28812599 C28.36948138 155.70876985 28.37359291 166.12940102 28.37280273 176.55004883 C28.3722042 186.18033243 28.3827186 195.81055962 28.3985464 205.44082898 C28.41174111 213.773598 28.41698162 222.10634887 28.41634732 230.43912822 C28.4160956 235.38677862 28.41876159 240.3343789 28.42952538 245.28201866 C28.48563353 273.00023889 28.26191452 300.61768368 23.875 328.0625 C23.7670108 328.75059753 23.65902161 329.43869507 23.54776001 330.14764404 C20.81585012 347.43243318 16.47829566 369.81915225 2.1875 381.75 C-10.00683552 390.06078918 -20.37506534 392.02082666 -35.14453125 390.51171875 C-46.27683141 388.26712055 -54.24039569 380.40936932 -60.4296875 371.39453125 C-88.52130843 324.45386933 -79.28319396 251.89859348 -79.14166534 199.39698112 C-79.12400425 192.41457629 -79.12471979 185.43226917 -79.1302436 178.44984895 C-79.13602176 170.73714846 -79.13019986 163.02449719 -79.11907005 155.31180382 C-79.11454349 152.09944391 -79.11349578 148.88711531 -79.1156559 145.67475319 C-79.1614343 30.70048575 -79.1614343 30.70048575 -53.6484375 3.4375 C-39.01823934 -10.23746186 -16.38562744 -11.85516423 0 0 Z " fill="#010000" transform="translate(140.8125,29.25)"/>
<path d="M0 0 C24.73019149 18.83164758 38.68084688 53.12162911 44.3828125 82.79296875 C45.03109903 86.16159684 45.81751247 89.47873004 46.625 92.8125 C47.81527535 97.88356893 48.49067327 102.82184492 49 108 C49.33 108.66 49.66 109.32 50 110 C50.55299118 113.92486213 50.91421607 117.87036727 51.30224609 121.81469727 C51.49280252 123.73978767 51.6934695 125.66386906 51.89453125 127.58789062 C53.91042376 147.75699696 54.20751643 167.93001256 54.1875 188.1875 C54.18656342 189.41711456 54.18562683 190.64672913 54.18466187 191.91360474 C54.1010534 242.71748644 51.54252957 296.86296218 28 343 C27.43410156 344.12921875 26.86820313 345.2584375 26.28515625 346.421875 C17.07969836 364.20656916 4.70912848 378.51029824 -13 388 C-13.72058594 388.39832031 -14.44117188 388.79664063 -15.18359375 389.20703125 C-17 390 -17 390 -20 390 C-20 390.66 -20 391.32 -20 392 C-18.98550781 392.1134375 -17.97101563 392.226875 -16.92578125 392.34375 C-5.96052133 394.17674867 3.78807861 399.52864381 11 408 C18.21756376 418.69101632 19.50735584 429.01869624 20.6796875 441.57617188 C21.53740022 449.62210196 23.21286224 456.81929336 27.75 463.625 C31.12051325 465.6847581 34.22589735 465.69809991 38 465 C42.05659747 463.1630502 44.12884135 461.36785089 45.8125 457.3125 C47.2070192 452.95667826 47.69466704 448.54840817 48 444 C49.32 444 50.64 444 52 444 C52.58178387 452.72675805 50.73913676 460.4662564 46.1875 468 C43.29962532 470.64034256 40.50058482 472.21900071 37 474 C36.319375 474.35835938 35.63875 474.71671875 34.9375 475.0859375 C24.51171934 478.33012989 10.10785428 477.42466448 0.46875 472.48046875 C-0.3459375 471.99191406 -1.160625 471.50335938 -2 471 C-2.8146875 470.54238281 -3.629375 470.08476562 -4.46875 469.61328125 C-17.27237424 461.82440984 -23.55047082 449.42418532 -27.07421875 435.2421875 C-27.96897396 431.28712381 -28.70448523 427.3065292 -29.4440918 423.32006836 C-31.83410295 409.54399905 -31.83410295 409.54399905 -39.8125 398.4375 C-44.11845098 396.41937611 -48.7939851 396.60346919 -53.4699707 396.41601562 C-75.31047973 395.40283454 -93.99455526 386.0609828 -108.74609375 370.0859375 C-124.81191984 351.55032688 -135.30379459 327.75199572 -141 304 C-141.18771973 303.22140625 -141.37543945 302.4428125 -141.56884766 301.640625 C-144.66805614 288.47584561 -146.84300008 275.19264063 -148.75 261.8125 C-148.85682098 261.08238708 -148.96364197 260.35227417 -149.07369995 259.60003662 C-152.30520404 237.3107113 -152.21339599 214.88705711 -152.24023438 192.41186523 C-152.2445963 189.2818624 -152.25843201 186.15213874 -152.28125 183.0222168 C-152.67719939 127.50402582 -149.03445224 58.79405176 -112 14 C-111.23042969 13.06800781 -110.46085937 12.13601562 -109.66796875 11.17578125 C-81.68024473 -21.13130805 -34.01696855 -25.43920271 0 0 Z M-79.5625 3.375 C-95.69603756 22.89319579 -98.50778415 51.03781568 -100.75 75.25 C-100.86537109 76.48951416 -100.98074219 77.72902832 -101.09960938 79.00610352 C-102.98441124 100.99403076 -103.17471516 122.99525481 -103.20018864 145.04775548 C-103.2031657 147.50626474 -103.20727818 149.96476982 -103.21169281 152.4232769 C-103.22531029 160.20007168 -103.23500079 167.97685632 -103.2388947 175.75366217 C-103.24290062 183.6993538 -103.25511245 191.64492488 -103.28125 199.59057617 C-103.61113475 246.94626781 -103.61113475 246.94626781 -101.671875 294.24609375 C-101.61339638 295.10826067 -101.55491776 295.97042759 -101.49466705 296.85872078 C-99.49680858 325.06103702 -96.22817847 360.25318612 -75 381 C-64.28669349 389.08963961 -53.52774502 390.10985264 -40.40625 388.7265625 C-31.44495236 387.05420766 -22.55389717 381.94895768 -17.21875 374.51953125 C-6.93478639 358.72318884 -2.46698592 342.06080497 0.25 323.5 C0.40082031 322.4903418 0.55164063 321.48068359 0.70703125 320.44042969 C4.24248979 294.17133575 4.31617699 267.74062153 4.30158257 241.29208827 C4.30049283 237.36223088 4.3054463 233.43238891 4.310188 229.50253493 C4.32118611 220.20293084 4.32177649 210.90336717 4.31567383 201.60375977 C4.30964757 192.12497557 4.3219335 182.64634032 4.3432439 173.1675815 C4.36106823 164.92530396 4.36682891 156.68307291 4.36360615 148.44077688 C4.36182531 143.56405762 4.36409722 138.68744448 4.37832069 133.81074333 C4.80971964 82.29525245 4.80971964 82.29525245 -5 32 C-5.35964844 30.79601563 -5.71929687 29.59203125 -6.08984375 28.3515625 C-10.5118403 13.96562273 -17.12930365 2.02583766 -30.375 -5.7734375 C-36.52327301 -8.64629126 -42.20056847 -9.36174741 -48.875 -9.3125 C-50.07080688 -9.30404053 -50.07080688 -9.30404053 -51.29077148 -9.29541016 C-62.70271093 -9.05943802 -71.54585904 -4.85978085 -79.5625 3.375 Z " fill="#F80000" transform="translate(165,31)"/>
<path d="M0 0 C6.49528697 4.97862098 12.20288986 10.38740138 17.30859375 16.76953125 C17.96859375 17.09953125 18.62859375 17.42953125 19.30859375 17.76953125 C19.63859375 11.82953125 19.96859375 5.88953125 20.30859375 -0.23046875 C22.61859375 -0.23046875 24.92859375 -0.23046875 27.30859375 -0.23046875 C27.44174683 9.59572527 27.57225224 19.4219504 27.69974518 29.24821949 C27.7590773 33.81531765 27.8191859 38.38240229 27.88134766 42.94946289 C28.20652051 66.89100165 28.38329019 90.82573099 28.30859375 114.76953125 C26.32859375 114.76953125 24.34859375 114.76953125 22.30859375 114.76953125 C21.55475372 110.91610578 20.80564007 107.06177948 20.05859375 103.20703125 C19.82970459 102.02625 19.60081543 100.84546875 19.36499023 99.62890625 C18.11099361 93.10864793 16.91904991 86.5849988 15.83203125 80.03491211 C10.16984087 38.5316465 10.16984087 38.5316465 -12.12890625 4.76953125 C-20.76304885 -0.53044468 -30.74249719 -1.90442723 -40.69140625 -0.23046875 C-52.48550523 3.22968566 -62.46448723 11.32396169 -68.34765625 22.01171875 C-78.01129431 41.84465036 -79.155824 64.27803187 -74.69140625 85.76953125 C-74.4696875 86.8575 -74.24796875 87.94546875 -74.01953125 89.06640625 C-70.10125324 105.10916717 -61.22737818 119.25504856 -50.69140625 131.76953125 C-49.80657457 132.8444622 -48.92247174 133.91999349 -48.0390625 134.99609375 C-41.97223558 142.32506566 -35.56490163 149.31656253 -29.07861328 156.2734375 C-26.29156372 159.2792523 -23.5601468 162.33488069 -20.828125 165.390625 C-19.4041391 166.97601332 -17.96918187 168.55161567 -16.5234375 170.1171875 C-10.66935393 176.48933156 -5.32446066 183.17611838 -0.046875 190.02441406 C1.22195888 191.65799198 2.51446683 193.27310425 3.80859375 194.88671875 C26.73335969 223.76310661 44.51965171 258.74745899 48.30859375 295.76953125 C48.39399414 296.43670166 48.47939453 297.10387207 48.56738281 297.79125977 C49.28687843 303.57201294 49.46560383 309.25993203 49.43359375 315.08203125 C49.42875977 316.00701416 49.42392578 316.93199707 49.41894531 317.88500977 C49.2006555 342.76786586 42.21333841 364.83348459 24.30859375 382.76953125 C23.695 383.39472656 23.08140625 384.01992188 22.44921875 384.6640625 C6.8564257 399.4239072 -14.22430423 404.20729229 -35.12890625 404.01953125 C-36.22420654 404.01276367 -37.31950684 404.00599609 -38.44799805 403.99902344 C-59.45761238 403.73025039 -77.07908702 398.33474901 -92.671875 383.94140625 C-94.69140625 381.76953125 -94.69140625 381.76953125 -94.69140625 379.76953125 C-95.35140625 379.76953125 -96.01140625 379.76953125 -96.69140625 379.76953125 C-97.02140625 386.03953125 -97.35140625 392.30953125 -97.69140625 398.76953125 C-100.00140625 398.76953125 -102.31140625 398.76953125 -104.69140625 398.76953125 C-104.71122559 397.75084961 -104.73104492 396.73216797 -104.75146484 395.68261719 C-104.85145066 390.62814785 -104.95782205 385.57382266 -105.06640625 380.51953125 C-105.08686005 379.56613861 -105.10731384 378.61274597 -105.12838745 377.63046265 C-105.40737709 364.87309892 -105.76303414 352.12004045 -106.203125 339.3671875 C-106.24814148 338.05908112 -106.29315796 336.75097473 -106.33953857 335.40322876 C-106.56289388 328.96027583 -106.79290126 322.5176284 -107.03076172 316.07519531 C-107.58592281 300.63296481 -107.81650044 285.2215503 -107.69140625 269.76953125 C-106.04140625 269.76953125 -104.39140625 269.76953125 -102.69140625 269.76953125 C-100.73823314 275.05356207 -99.70632498 280.37394374 -98.69140625 285.89453125 C-98.51480469 286.83449951 -98.33820312 287.77446777 -98.15625 288.74291992 C-97.26645289 293.51363305 -96.4323664 298.28563745 -95.69140625 303.08203125 C-94.84890063 308.29965379 -93.61176698 313.39489245 -92.28417969 318.50610352 C-91.39031773 321.94812097 -90.54392859 325.38415755 -89.82421875 328.8671875 C-85.23914366 350.72374476 -75.99129734 377.74871432 -56.69140625 390.76953125 C-48.93779952 395.26206221 -41.80613952 396.21441541 -33.00390625 396.26953125 C-32.13741455 396.275896 -31.27092285 396.28226074 -30.37817383 396.28881836 C-18.50080575 396.05557529 -7.22394705 391.70029912 1.6171875 383.6796875 C8.13716986 376.31647416 11.79202486 367.15291877 14.30859375 357.76953125 C14.53417969 356.95742188 14.75976562 356.1453125 14.9921875 355.30859375 C20.48918591 331.27344208 13.97277503 307.22855859 1.72265625 286.46484375 C-3.66039504 277.97922278 -10.0366159 270.00584274 -16.5859375 262.39453125 C-18.69140625 259.76953125 -18.69140625 259.76953125 -18.69140625 257.76953125 C-19.35140625 257.76953125 -20.01140625 257.76953125 -20.69140625 257.76953125 C-22.12953298 256.20012324 -23.49170675 254.5607909 -24.81640625 252.89453125 C-25.61820313 251.89421875 -26.42 250.89390625 -27.24609375 249.86328125 C-28.79358405 247.9054341 -30.34052872 245.94715545 -31.88671875 243.98828125 C-35.31166436 239.66477577 -38.73862893 235.62589937 -42.69140625 231.76953125 C-56.22712903 217.24987577 -68.26545887 201.65372609 -78.69140625 184.76953125 C-79.32079102 183.76116211 -79.32079102 183.76116211 -79.96289062 182.73242188 C-85.98940085 173.03055115 -90.80144747 163.51378486 -94.69140625 152.76953125 C-95.119375 151.70089844 -95.54734375 150.63226563 -95.98828125 149.53125 C-98.84225768 142.1760947 -100.74382774 134.77755607 -102.44140625 127.08203125 C-102.65224854 126.13199219 -102.86309082 125.18195313 -103.08032227 124.203125 C-105.58529789 112.3386402 -105.90331655 100.60853965 -105.93164062 88.52832031 C-105.94133409 86.0380699 -105.97244875 83.54865132 -106.00390625 81.05859375 C-106.16967502 55.82542474 -99.2650445 31.45246892 -81.69140625 12.76953125 C-75.90781884 6.93120957 -70.11328344 2.30939821 -62.69140625 -1.23046875 C-61.985 -1.58753906 -61.27859375 -1.94460937 -60.55078125 -2.3125 C-42.13122358 -11.15786313 -17.45112418 -11.62427327 0 0 Z " fill="#FB0000" transform="translate(1056.69140625,13.23046875)"/>
<path d="M0 0 C28.71 0 57.42 0 87 0 C87 2.31 87 4.62 87 7 C80.07 7 73.14 7 66 7 C66.08199001 49.42172227 66.17403868 91.84341117 66.28005161 134.2650806 C66.29256988 139.27787582 66.30500275 144.29067124 66.31738281 149.3034668 C66.31984881 150.30138809 66.3223148 151.29930938 66.32485552 152.32747071 C66.36453611 168.467478 66.39730421 184.60749224 66.42749982 200.74751974 C66.45865761 217.31924488 66.49728541 233.89094058 66.54279006 250.4626326 C66.57061568 260.68116157 66.5926743 270.8996691 66.60726251 281.11822569 C66.61783704 288.13362793 66.63569354 295.14898857 66.65916704 302.1643594 C66.6724809 306.20663622 66.68268901 310.24885495 66.68421364 314.29115486 C66.68568468 318.0020986 66.69643167 321.71290283 66.71413441 325.42380356 C66.72117746 327.38111874 66.71867028 329.33846137 66.71566427 331.29578692 C66.83375835 350.2276104 69.79196825 368.68423054 81.25 384.3125 C89.87019963 392.73678601 100.55107784 396.33832328 112.44799805 396.41748047 C113.41390869 396.40346191 114.37981934 396.38944336 115.375 396.375 C116.38796143 396.36484863 117.40092285 396.35469727 118.44458008 396.34423828 C132.78250917 396.04675652 146.52311838 392.1277656 157.1953125 382.03125 C173.04847356 364.18786525 175.17245413 340.94902977 175.12698364 318.15951538 C175.12854363 316.93518693 175.13010362 315.71085847 175.13171089 314.44942915 C175.13498201 311.09094679 175.13384197 307.73252128 175.13072467 304.37404251 C175.12844527 300.73666957 175.1319627 297.09930131 175.13470459 293.46192932 C175.13913398 286.35260393 175.13819853 279.24328913 175.13529195 272.13396333 C175.13302711 266.35347452 175.13273007 260.57298867 175.13381577 254.79249954 C175.13404561 253.55515601 175.13404561 253.55515601 175.13428011 252.29281563 C175.13459985 250.61671562 175.13492407 248.94061561 175.1352527 247.26451559 C175.1380991 231.57577342 175.13483346 215.88703711 175.12945233 200.19829591 C175.12498339 186.75296257 175.1257626 173.30763787 175.13037109 159.86230469 C175.13572882 144.22390591 175.13782624 128.58551225 175.13475883 112.94711268 C175.1344403 111.27803143 175.13412593 109.60895018 175.13381577 107.93986893 C175.13366149 107.11878263 175.13350721 106.29769633 175.13334826 105.45172863 C175.13248683 99.68090555 175.1339379 93.91008573 175.13629532 88.13926315 C175.13910675 81.1028633 175.13832669 74.0664746 175.13301457 67.03007601 C175.13039593 63.44389481 175.12934124 59.85773217 175.13266373 56.27155113 C175.13621765 52.37652949 175.1319592 48.48153789 175.12698364 44.58651733 C175.12921436 43.46403261 175.13144509 42.34154788 175.13374341 41.18504846 C175.47169019 26.36929084 175.47169019 26.36929084 170 13 C164.75449981 7.88563731 159.80662889 7.81776004 152.75 7.4375 C151.63238281 7.37272461 151.63238281 7.37272461 150.4921875 7.30664062 C148.661651 7.20103275 146.83084824 7.10005799 145 7 C145 4.69 145 2.38 145 0 C167.77 0 190.54 0 214 0 C214 2.31 214 4.62 214 7 C212.28103516 7.03867187 212.28103516 7.03867187 210.52734375 7.078125 C208.9973597 7.13444343 207.46741325 7.1917899 205.9375 7.25 C205.18533203 7.26417969 204.43316406 7.27835938 203.65820312 7.29296875 C198.04361696 7.53602443 194.59971057 8.72030751 190 12 C188.42118436 13.90267274 188.42118436 13.90267274 187.625 16 C187.18027344 16.99 187.18027344 16.99 186.7265625 18 C185.34527319 21.80225874 184.87469356 25.11590816 184.87250805 29.16724586 C184.8695004 30.21812814 184.86649275 31.26901042 184.86339396 32.35173762 C184.86601952 34.08193032 184.86601952 34.08193032 184.86869812 35.84707642 C184.86658241 37.07354932 184.86446669 38.30002223 184.86228687 39.56366098 C184.85836147 42.25880961 184.85626895 44.95388806 184.85725212 47.64903259 C184.85884517 52.03538923 184.85364153 56.42172308 184.84762573 60.80807495 C184.83950897 67.18131122 184.8345672 73.55454348 184.83133507 79.92778397 C184.82582911 90.02514572 184.80891823 100.12247383 184.78999329 110.21981812 C184.78363585 113.67875856 184.77732737 117.1376991 184.77101612 120.59663963 C184.76943236 121.46124505 184.7678486 122.32585046 184.76621684 123.21665604 C184.74827352 133.06321748 184.73205476 142.90978132 184.71704102 152.75634766 C184.71566514 153.65641247 184.71428927 154.55647728 184.71287171 155.48381679 C184.69101972 170.01568071 184.68020512 184.54753594 184.67267027 199.07941337 C184.6645619 214.02976828 184.64114586 228.98004938 184.6047166 243.93036211 C184.58283431 253.1311506 184.5729828 262.3317867 184.57921693 271.53259985 C184.58242376 277.86266726 184.57085226 284.19260596 184.54832252 290.52263351 C184.53581784 294.15930316 184.52928136 297.79568566 184.54073906 301.43236542 C184.60859478 325.24478139 184.41006431 351.08423135 172.8125 372.5625 C172.41595215 373.29774902 172.0194043 374.03299805 171.61083984 374.79052734 C165.92555105 385.03402534 159.20418732 391.25264155 149 397 C148.3090625 397.40089844 147.618125 397.80179687 146.90625 398.21484375 C126.48294537 409.30536778 95.65710946 407.75705842 73.94433594 401.39794922 C55.06844958 395.29050659 41.21966763 383.42575658 32 366 C22.79055768 347.32588832 20.82906669 326.3962507 20.87974548 305.83247375 C20.87889106 304.54900675 20.87803663 303.26553974 20.87715632 301.94317979 C20.87493727 298.41073009 20.87889685 294.87831115 20.88393438 291.34586537 C20.88827619 287.52530049 20.88678982 283.70473718 20.8860321 279.88417053 C20.88550923 273.27472337 20.88863133 266.66528612 20.89426994 260.05584145 C20.90241698 250.49984082 20.90500344 240.94384497 20.90625793 231.38784125 C20.90844343 215.88168637 20.91508987 200.37553678 20.92456055 184.86938477 C20.93374768 169.81176785 20.94082215 154.75415236 20.94506836 139.6965332 C20.94546244 138.30295421 20.94546244 138.30295421 20.94586449 136.88122211 C20.94716958 132.22016886 20.94843328 127.55911561 20.94967639 122.89806235 C20.96003335 84.26537117 20.97771261 45.63268602 21 7 C14.07 7 7.14 7 0 7 C0 4.69 0 2.38 0 0 Z " fill="#F2F2F2" transform="translate(249,15)"/>
<path d="M0 0 C28.71 0 57.42 0 87 0 C87 2.31 87 4.62 87 7 C80.07 7 73.14 7 66 7 C66 133.72 66 260.44 66 391 C96.56444956 392.65441286 96.56444956 392.65441286 122 380 C141.57370299 357.16401318 142.10339236 321.11738288 143.6875 292.6875 C143.81755874 290.47065601 143.94841428 288.25385862 144.08007812 286.03710938 C144.39586115 280.69190586 144.70197664 275.34622166 145 270 C147.31 270 149.62 270 152 270 C152.05522729 281.93934247 151.89439145 293.86145154 151.59765625 305.796875 C151.55507593 307.56398193 151.51263437 309.33109221 151.47032166 311.09820557 C151.38165803 314.78246291 151.291593 318.46668235 151.20043945 322.15087891 C151.08602063 326.77833919 150.97469966 331.40586729 150.86443424 336.03342819 C150.7771953 339.68211669 150.68842802 343.3307669 150.59924126 346.97940826 C150.55779472 348.68032105 150.51672908 350.38124318 150.4761219 352.08217621 C150.1008653 367.72676544 149.53936112 383.3585275 149 399 C99.83 399 50.66 399 0 399 C0 396.69 0 394.38 0 392 C6.93 392 13.86 392 21 392 C21 264.95 21 137.9 21 7 C14.07 7 7.14 7 0 7 C0 4.69 0 2.38 0 0 Z " fill="#F90000" transform="translate(599,12)"/>
<path d="M0 0 C28.38 0 56.76 0 86 0 C86 2.31 86 4.62 86 7 C79.07 7 72.14 7 65 7 C65 134.05 65 261.1 65 392 C89.39898391 392.82830227 89.39898391 392.82830227 112.1875 386.625 C112.98542969 386.22539062 113.78335938 385.82578125 114.60546875 385.4140625 C127.29452936 377.92068576 132.55917808 363.04562492 136.13842773 349.44995117 C141.26117733 328.32678368 142.46878886 306.32985929 143.60546875 284.69140625 C143.8699842 279.74900004 144.28801937 274.89718849 145 270 C146.98 270 148.96 270 151 270 C151.14568384 299.58124441 150.75340235 329.11587635 150 358.6875 C149.67 371.990625 149.34 385.29375 149 399 C99.83 399 50.66 399 0 399 C0 396.69 0 394.38 0 392 C6.93 392 13.86 392 21 392 C21 264.95 21 137.9 21 7 C14.07 7 7.14 7 0 7 C0 4.69 0 2.38 0 0 Z " fill="#FD0000" transform="translate(773,12)"/>
<path d="M0 0 C28.38 0 56.76 0 86 0 C86 2.31 86 4.62 86 7 C79.07 7 72.14 7 65 7 C65 134.05 65 261.1 65 392 C72.26 392 79.52 392 87 392 C87 394.31 87 396.62 87 399 C58.29 399 29.58 399 0 399 C0 396.69 0 394.38 0 392 C6.93 392 13.86 392 21 392 C21 264.95 21 137.9 21 7 C14.07 7 7.14 7 0 7 C0 4.69 0 2.38 0 0 Z " fill="#FE0000" transform="translate(499,12)"/>
<path d="M0 0 C14.19 0 28.38 0 43 0 C40 6 37 12 34 18 C39.90912328 16.6993139 45.43088945 14.8853542 50.95061493 12.43487549 C86.65218694 -3.31585071 122.44124408 -1.8575118 160.61486721 -1.13694382 C169.33658198 -0.97539642 178.05830906 -0.90455106 186.78119278 -0.8399601 C206.44818308 -0.69098637 226.1113871 -0.3923058 245.77565002 -0.03966522 C248.68667974 0.01224506 251.59773265 0.06277248 254.50878763 0.1132431 C270.00640743 0.38208124 285.50348236 0.67349229 301 1 C297.91481226 3.49189698 294.86501788 5.8160193 291.49609375 7.91015625 C290.26149414 8.68262695 290.26149414 8.68262695 289.00195312 9.47070312 C288.15568359 9.99599609 287.30941406 10.52128906 286.4375 11.0625 C284.74770779 12.11429637 283.05887119 13.16762988 281.37109375 14.22265625 C280.2562561 14.91500366 280.2562561 14.91500366 279.11889648 15.62133789 C276.95068285 16.98827646 276.95068285 16.98827646 274.85180664 18.68139648 C273 20 273 20 271 19.875 C268.70732394 18.87195422 266.97418546 17.52840165 265 16 C261.50018905 14.83339635 258.32584654 14.82463624 254.68286133 14.79467773 C253.94115189 14.78477814 253.19944244 14.77487854 252.43525696 14.76467896 C249.98421417 14.73309743 247.533152 14.70831979 245.08203125 14.68359375 C243.38237505 14.66302133 241.68272393 14.64202478 239.983078 14.62062073 C235.50985837 14.5654298 231.03659279 14.51600738 226.56329346 14.46777344 C221.99853426 14.41753668 217.43384177 14.36186196 212.86914062 14.30664062 C203.91281741 14.19909548 194.95643627 14.0976424 186 14 C185.731875 14.70125 185.46375 15.4025 185.1875 16.125 C183.93872485 19.14835036 182.46287982 22.07424036 181 25 C202.12 25 223.24 25 245 25 C245 25.66 245 26.32 245 27 C243.28048026 28.53851766 241.49812503 30.00731759 239.6875 31.4375 C235.94841857 34.2782665 235.94841857 34.2782665 232.69108582 37.61567688 C230.23051893 39.62989733 228.39128024 39.36071181 225.2434082 39.34057617 C223.47191154 39.34023628 223.47191154 39.34023628 221.66462708 39.33988953 C220.38955795 39.32440567 219.11448883 39.30892181 217.80078125 39.29296875 C216.49545944 39.28872391 215.19013763 39.28447906 213.84526062 39.28010559 C210.37794721 39.26866089 206.91101187 39.23919754 203.44384766 39.20599365 C199.90467442 39.17528433 196.36543999 39.16159845 192.82617188 39.14648438 C185.88395945 39.11432705 178.94199789 39.06313554 172 39 C171.731875 39.886875 171.46375 40.77375 171.1875 41.6875 C170 45 170 45 167 50 C202.64 50 238.28 50 275 50 C264.20834726 62.59026153 264.20834726 62.59026153 259.13370514 63.53181458 C255.51121334 63.75428705 251.93860042 63.76479408 248.30957031 63.71289062 C246.92425521 63.71447415 245.538941 63.71867414 244.15364075 63.72528076 C240.40767731 63.73551031 236.6628209 63.70856279 232.9170351 63.67422676 C228.99336332 63.64406959 225.06970333 63.64650097 221.14593506 63.64489746 C214.56210517 63.63752396 207.97869379 63.6076435 201.39501953 63.5625 C192.94197997 63.50465687 184.48927631 63.4840425 176.03606033 63.4751358 C168.76599994 63.46717996 161.49601263 63.44218417 154.2260046 63.41444206 C151.88929091 63.40624532 149.5525798 63.40039368 147.21585846 63.39485168 C143.54842844 63.38506882 139.88120222 63.36466787 136.21387291 63.33597565 C134.22379697 63.32260784 132.23366341 63.31892208 130.24354553 63.31549072 C128.47294014 63.29836029 128.47294014 63.29836029 126.66656494 63.28088379 C125.63863956 63.27493446 124.61071419 63.26898514 123.55163956 63.26285553 C121 63 121 63 118 61 C118 60.34 118 59.68 118 59 C123.75 56 123.75 56 126 56 C126.26409668 55.13375 126.52819336 54.2675 126.80029297 53.375 C127.99702368 50.00837295 129.44866137 47.11309915 131.1953125 44 C131.82566406 42.87174805 132.45601562 41.74349609 133.10546875 40.58105469 C133.43595215 39.99529663 133.76643555 39.40953857 134.10693359 38.80603027 C135.13342336 36.98505713 136.15153142 35.15960834 137.16796875 33.33300781 C139.97595762 28.29863799 142.79494309 23.2770219 145.8046875 18.359375 C146.18608887 17.72902344 146.56749023 17.09867187 146.96044922 16.44921875 C147.91544582 14.88820974 148.8941245 13.34175392 149.875 11.796875 C151.32719615 8.186554 150.82012879 5.74649743 150 2 C141.11479814 4.50062567 132.41831271 7.12155721 123.83984375 10.55078125 C117.59554228 12.97324422 111.18572231 14.95425628 104.82421875 17.04248047 C99.29511288 18.86781658 93.84394764 20.77617388 88.4375 22.9375 C84.22892792 24.61417711 80.51905964 25.68471677 76 26 C78.98224825 30.84615341 82.5124449 34.88561606 86.390625 39.046875 C88 41 88 41 88 43 C88.66 43 89.32 43 90 43 C91.29041914 44.44764262 92.50767134 45.96089149 93.6875 47.5 C96.89293931 51.62546485 100.21763082 55.55849072 103.75 59.40625 C105 61 105 61 105 63 C99.25730562 63.37459872 93.52188359 63.6445651 87.76977539 63.82397461 C85.82027261 63.89881311 83.87159486 64.00074677 81.92504883 64.1315918 C66.29382564 65.1549453 66.29382564 65.1549453 60.85726929 61.59814453 C56.4416259 57.65208302 53.14653305 52.98164409 50 48 C49.13492337 46.67189616 48.26867348 45.34455562 47.40112305 44.01806641 C47.03085495 43.44190582 46.66058685 42.86574524 46.27909851 42.27212524 C43.03425841 37.26891971 43.03425841 37.26891971 38.01318359 34.35205078 C33.31723668 33.53814252 28.73683022 33.64150541 24 34 C23.72744385 34.71639648 23.4548877 35.43279297 23.17407227 36.17089844 C22.00676251 38.98370472 20.67479622 41.59408869 19.21484375 44.265625 C18.41916992 45.72355469 18.41916992 45.72355469 17.60742188 47.2109375 C17.05634766 48.21382813 16.50527344 49.21671875 15.9375 50.25 C15.38255859 51.26835937 14.82761719 52.28671875 14.25585938 53.3359375 C10.13489507 60.86510493 10.13489507 60.86510493 9 62 C6.15075699 62.12592074 3.32708392 62.18867742 0.4765625 62.203125 C-0.38055328 62.20882507 -1.23766907 62.21452515 -2.12075806 62.22039795 C-3.93824015 62.22986282 -5.75573952 62.23638781 -7.57324219 62.24023438 C-10.35642426 62.24993525 -13.13886661 62.28094214 -15.921875 62.3125 C-17.68489143 62.31903021 -19.44791316 62.32428061 -21.2109375 62.328125 C-22.46262222 62.3466452 -22.46262222 62.3466452 -23.73959351 62.36553955 C-29.60716002 62.34288691 -29.60716002 62.34288691 -31.74404907 60.47772217 C-32.15851288 59.99007385 -32.57297668 59.50242554 -33 59 C-28.375 56 -28.375 56 -25 56 C-24.79246094 55.22914063 -24.58492187 54.45828125 -24.37109375 53.6640625 C-22.46848939 48.57960983 -19.77464569 44.06678557 -17.0625 39.375 C-15.89418825 37.32050751 -14.72622629 35.26581608 -13.55859375 33.2109375 C-11.28155567 29.22348036 -8.97923667 25.25217935 -6.66015625 21.2890625 C-5.64797888 19.52630493 -4.63623859 17.76329629 -3.625 16 C-2.90195679 14.792229 -2.90195679 14.792229 -2.16430664 13.56005859 C-1.51449829 12.41657959 -1.51449829 12.41657959 -0.8515625 11.25 C-0.46822754 10.59515625 -0.08489258 9.9403125 0.31005859 9.265625 C1.39914347 6.26336255 1.39914347 6.26336255 0 0 Z " fill="#F9F9F9" transform="translate(879,446)"/>
<path d="M0 0 C1.09933868 -0.00137466 2.19867737 -0.00274933 3.33132935 -0.00416565 C4.53254425 -0.00057037 5.73375916 0.0030249 6.97137451 0.00672913 C8.87419693 0.00651009 8.87419693 0.00651009 10.81546021 0.00628662 C14.29033331 0.00599977 17.76517188 0.01187835 21.24003696 0.01886058 C24.8728728 0.02511282 28.50570942 0.0256994 32.1385498 0.02688599 C39.01620508 0.02999378 45.89384445 0.03819974 52.77149272 0.04823548 C60.60214771 0.05941373 68.43280347 0.06491138 76.26346445 0.06993091 C92.37021201 0.0803828 108.47694357 0.09797158 124.5836792 0.12025452 C123.78146817 3.60817001 122.51567969 6.37027125 120.8102417 9.53041077 C119.95160522 11.12610901 119.95160522 11.12610901 119.07562256 12.75404358 C118.1514856 14.45125549 118.1514856 14.45125549 117.2086792 16.18275452 C116.5803418 17.34129944 115.95200439 18.49984436 115.30462646 19.6934967 C111.44527766 26.79073172 107.53532442 33.85924745 103.5211792 40.87025452 C103.09337158 41.62443665 102.66556396 42.37861877 102.22479248 43.15565491 C98.85847721 48.96145406 95.44084603 54.58452758 89.3336792 57.80775452 C88.64789795 58.1828717 87.9621167 58.55798889 87.2555542 58.94447327 C79.13366933 62.51857757 72.21475446 63.5635905 63.33441162 63.54017639 C62.13983337 63.54864594 60.94525513 63.55711548 59.71447754 63.56584167 C56.46474282 63.58512251 53.215363 63.59099717 49.96558166 63.58909416 C47.2465354 63.58897388 44.52754202 63.59756019 41.8085106 63.60587168 C35.39669765 63.62504173 28.98501489 63.62801064 22.57318115 63.62123108 C15.96373706 63.61457169 9.35484838 63.63754459 2.74551696 63.67454481 C-2.9413368 63.70522256 -8.62801149 63.71660468 -14.31494635 63.712708 C-17.70659825 63.71064107 -21.09781617 63.7161124 -24.48938942 63.74060059 C-28.26472268 63.762659 -32.0386985 63.75315548 -35.81402588 63.73548889 C-37.49645638 63.75538376 -37.49645638 63.75538376 -39.21287537 63.77568054 C-46.75740705 63.69337333 -46.75740705 63.69337333 -50.14952087 60.74293518 C-51.4163208 58.12025452 -51.4163208 58.12025452 -51.28741455 55.54212952 C-50.48928678 53.32311958 -49.66094612 51.40637072 -48.4788208 49.37025452 C-48.03796143 48.60326233 -47.59710205 47.83627014 -47.1428833 47.04603577 C-45.76395069 44.70933775 -44.38350927 42.37355067 -43.0022583 40.03822327 C-42.56776367 39.30249084 -42.13326904 38.56675842 -41.68560791 37.80873108 C-40.81737468 36.34124981 -39.94594266 34.87565497 -39.07086182 33.4122467 C-37.01087597 29.94372697 -35.05744013 26.46919357 -33.27960205 22.84681702 C-29.0297997 14.19524388 -22.38510274 5.79225798 -13.1663208 2.24525452 C-8.54528361 0.85894336 -4.83879342 -0.00467065 0 0 Z " fill="#F7F7F7" transform="translate(748.4163208007813,444.87974548339844)"/>
<path d="M0 0 C19.00148346 -0.04667041 38.00295533 -0.08196446 57.00448418 -0.10362434 C65.82673938 -0.11394762 74.64895902 -0.12802797 83.47119141 -0.15087891 C91.15846502 -0.17078068 98.84571289 -0.18370878 106.53301156 -0.18817699 C110.60535183 -0.19078984 114.67761843 -0.19695283 118.74993515 -0.21146011 C122.57970895 -0.22499335 126.40937845 -0.22923133 130.23917389 -0.22621536 C131.64771465 -0.22676744 133.05625875 -0.23077021 134.4647789 -0.23841095 C136.38208265 -0.24830506 138.29944186 -0.24479046 140.21676636 -0.24050903 C141.82898229 -0.24327441 141.82898229 -0.24327441 143.47376823 -0.24609566 C146 0 146 0 148 2 C147.43521017 7.57897874 144.55619557 12.1492619 141.9375 17 C141.48439453 17.88945312 141.03128906 18.77890625 140.56445312 19.6953125 C137.28543757 25.77260273 134.19651359 29.00241851 128 32 C126.80298462 32.60255615 126.80298462 32.60255615 125.58178711 33.21728516 C123.07042516 34.45313126 120.54124496 35.63946757 118 36.8125 C116.69482422 37.42254883 116.69482422 37.42254883 115.36328125 38.04492188 C113.24428342 39.03456372 111.12323027 40.01948047 109 41 C108.65542556 44.15160906 108.65542556 44.15160906 111.125 46.234375 C112.07375 47.06453125 113.0225 47.8946875 114 48.75 C114.49604736 49.18884521 114.99209473 49.62769043 115.50317383 50.07983398 C117.82478462 52.12857794 120.17139458 54.14847089 122.51171875 56.17578125 C123.22972656 56.79839844 123.94773437 57.42101562 124.6875 58.0625 C125.65236328 58.88427734 125.65236328 58.88427734 126.63671875 59.72265625 C127.31154297 60.35494141 127.31154297 60.35494141 128 61 C128 61.33 128 61.66 128 62 C122.93240462 62.24959741 117.86847452 62.42971978 112.79614258 62.54931641 C111.07610692 62.59921917 109.35648702 62.66717532 107.63793945 62.75439453 C92.59607801 63.49795849 92.59607801 63.49795849 87.55273438 59.90087891 C84.81744502 57.40217264 82.40339633 54.81513355 80 52 C78.92516863 51.03449097 77.82871651 50.09134013 76.6953125 49.1953125 C74.96465997 47.80132186 73.2355205 46.40545091 71.5078125 45.0078125 C70.68023438 44.34523438 69.85265625 43.68265625 69 43 C67.93011841 41.96673584 67.93011841 41.96673584 66.83862305 40.91259766 C63.24691547 38.4925893 60.26340687 38.39779449 56.07421875 38.390625 C55.32662796 38.37408875 54.57903717 38.35755249 53.80879211 38.34051514 C51.43494348 38.29216077 49.06173478 38.27069364 46.6875 38.25 C45.07223365 38.22182957 43.45699694 38.19190063 41.84179688 38.16015625 C37.89458398 38.08640605 33.94772369 38.03675543 30 38 C32.56474629 32.13731094 36.8420561 27.69866105 42 24 C46.6074947 22.71029586 50.9085423 22.82176734 55.6640625 23.0234375 C56.93728363 23.03758698 58.21050476 23.05173645 59.52230835 23.0663147 C62.87562912 23.11254058 66.22187143 23.2019766 69.57324219 23.31335449 C73.00524358 23.41646972 76.43798317 23.46149427 79.87109375 23.51171875 C86.5826512 23.62152573 93.29091797 23.78850378 100 24 C100.268125 23.113125 100.53625 22.22625 100.8125 21.3125 C102 18 102 18 105 13 C70.35 13.495 70.35 13.495 35 14 C32.36 18.95 29.72 23.9 27 29 C23.9375 34.0625 23.9375 34.0625 22.50390625 36.3984375 C20.31713182 40.18127327 18.40411431 44.09370743 16.4777832 48.01293945 C14.46206796 52.10840588 12.32127847 56.0716826 10 60 C9.505 60.99 9.505 60.99 9 62 C3.50074579 62.04940929 -1.99837942 62.08572395 -7.49780273 62.10986328 C-9.36891938 62.11992567 -11.24002028 62.13357691 -13.11108398 62.15087891 C-15.79935591 62.17511684 -18.48742006 62.18648063 -21.17578125 62.1953125 C-22.01337479 62.20563507 -22.85096832 62.21595764 -23.71394348 62.22659302 C-29.65838488 62.22774341 -29.65838488 62.22774341 -33 60 C-33 59.34 -33 58.68 -33 58 C-31.96875 57.731875 -30.9375 57.46375 -29.875 57.1875 C-25.19967761 55.16371315 -23.78633797 51.65070061 -21.60546875 47.2421875 C-19.83736637 43.67156711 -17.87999621 40.25313261 -15.875 36.8125 C-13.46041998 32.62480031 -11.15324271 28.42148811 -9.0703125 24.05859375 C-7.6191333 21.26745711 -5.95176586 18.62204672 -4.3125 15.9375 C-0.93665875 10.22453788 0 6.56871288 0 0 Z " fill="#FAFAFA" transform="translate(565,445)"/>
<path d="M0 0 C49.5 0 99 0 150 0 C150 0.66 150 1.32 150 2 C147.84448242 3.57226562 147.84448242 3.57226562 144.85546875 5.40625 C143.25155273 6.39818359 143.25155273 6.39818359 141.61523438 7.41015625 C140.47278558 8.10698292 139.33020602 8.80359523 138.1875 9.5 C135.97255381 10.86441705 133.75770563 12.22899322 131.54296875 13.59375 C130.55321045 14.19896484 129.56345215 14.80417969 128.54370117 15.42773438 C126.67375053 16.58355375 124.82911716 17.78058856 123 19 C120.00799296 18.76378892 118.28141892 18.19626833 115.811203 16.47348022 C112.29052118 14.62812966 109.27312468 14.57812563 105.39575195 14.61181641 C104.64720947 14.60655945 103.89866699 14.60130249 103.12744141 14.59588623 C100.66417309 14.58272894 98.20155562 14.59140612 95.73828125 14.6015625 C94.0238584 14.59954117 92.30943639 14.59662924 90.59501648 14.59286499 C87.00816636 14.58844799 83.42154078 14.59485491 79.8347168 14.60888672 C75.23091777 14.62601713 70.62764193 14.61610932 66.02386189 14.59816933 C62.486893 14.5873476 58.95004897 14.5907697 55.4130764 14.5985527 C53.71495693 14.60055718 52.0168262 14.59808679 50.31871986 14.59111404 C47.95086055 14.58352161 45.58385957 14.59506995 43.21606445 14.61181641 C42.51110336 14.60574371 41.80614227 14.59967102 41.07981873 14.59341431 C38.92720077 14.58669508 38.92720077 14.58669508 36 15 C35.34 15.99 34.68 16.98 34 18 C35.87558594 17.93232422 35.87558594 17.93232422 37.7890625 17.86328125 C43.49657143 17.86884412 48.81531249 18.98473614 54.375 20.1875 C56.6077336 20.65137579 58.84081937 21.11355913 61.07421875 21.57421875 C62.7919751 21.9307251 62.7919751 21.9307251 64.54443359 22.29443359 C70.08071265 23.42484524 75.63172365 24.47030268 81.1875 25.5 C82.28312256 25.70439697 83.37874512 25.90879395 84.50756836 26.11938477 C90.73838599 27.26644515 96.97700816 28.33089688 103.234375 29.3203125 C103.92070511 29.42998352 104.60703522 29.53965454 105.31416321 29.65264893 C108.65903807 30.18706926 112.00438529 30.71008756 115.35424805 31.21289062 C117.15696167 31.4980957 117.15696167 31.4980957 118.99609375 31.7890625 C120.06013428 31.95100098 121.1241748 32.11293945 122.22045898 32.27978516 C125.1318598 33.03416657 126.75687152 34.03359706 129 36 C128.58527786 42.25193622 125.5286414 46.99139829 122.5 52.3125 C121.98824219 53.23095703 121.47648438 54.14941406 120.94921875 55.09570312 C117.18459821 61.81540179 117.18459821 61.81540179 116 63 C114.12705216 63.09652596 112.25041756 63.12187266 110.37498474 63.12025452 C108.54284424 63.12231651 108.54284424 63.12231651 106.6736908 63.12442017 C105.30776953 63.12088056 103.94184852 63.11724574 102.57592773 63.11352539 C101.14722699 63.11324352 99.7185261 63.11340124 98.28982544 63.1139679 C94.39950028 63.11425589 90.50920569 63.10835887 86.61888766 63.10139394 C82.55761795 63.0951607 78.49634761 63.09455663 74.43507385 63.09336853 C66.73921067 63.09025512 59.04336162 63.08204161 51.34750468 63.07201904 C42.58827886 63.06085819 33.82905239 63.05534753 25.06982124 63.05032361 C7.04653947 63.03985901 -10.97672913 63.02225939 -29 63 C-25.21687791 59.21251514 -21.40310299 55.47562102 -17.5 51.8125 C-16.94441406 51.27947266 -16.38882813 50.74644531 -15.81640625 50.19726562 C-9.81328957 44.58258591 -9.81328957 44.58258591 -6 44 C-4.96945999 44.64167618 -3.93891998 45.28335236 -2.87715149 45.94447327 C1.29875731 48.42733742 4.78980787 48.56194734 9.56567383 48.50170898 C10.80596848 48.50981346 10.80596848 48.50981346 12.07131958 48.51808167 C14.78359593 48.53051298 17.49479965 48.514123 20.20703125 48.49609375 C22.0979569 48.49624879 23.98888288 48.49773868 25.87980652 48.50050354 C29.83139185 48.50188476 33.78261297 48.48937001 37.73413086 48.46655273 C42.806456 48.43807144 47.87818076 48.4409354 52.95055103 48.45364285 C56.84953474 48.46058359 60.74837872 48.4528308 64.64734459 48.44038582 C66.51850538 48.43586252 68.38968111 48.43554216 70.26084328 48.43945122 C72.86797744 48.4423502 75.47427076 48.42592372 78.08129883 48.40405273 C78.85792374 48.40855438 79.63454865 48.41305603 80.43470764 48.41769409 C82.79806241 48.4199195 82.79806241 48.4199195 86 48 C86.66 47.01 87.32 46.02 88 45 C87.12093994 44.89550537 86.24187988 44.79101074 85.33618164 44.68334961 C75.26482882 43.42122422 65.37755908 41.60107097 55.4375 39.5625 C53.93823874 39.25933159 52.43888988 38.9565961 50.93945312 38.65429688 C44.2149185 37.29406206 37.50048816 35.89790158 30.796875 34.4375 C22.63002382 32.67443578 14.40868976 31.23522665 6.17773438 29.80664062 C4.45973633 29.49823242 4.45973633 29.49823242 2.70703125 29.18359375 C1.6806958 29.00368896 0.65436035 28.82378418 -0.40307617 28.63842773 C-3 28 -3 28 -6 26 C-5.77578142 19.04922388 -4.28472266 15.17309967 -0.1796875 9.5546875 C1.56039678 6.39432689 1.56039678 6.39432689 0 0 Z " fill="#F6F6F6" transform="translate(258,443)"/>
<path d="M0 0 C49.5 0 99 0 150 0 C148.22749825 4.43125437 146.13437475 8.73125051 144 13 C126.84 13 109.68 13 92 13 C91.34 14.98 90.68 16.96 90 19 C88.99378902 21.00098966 87.93692664 22.97704076 86.83984375 24.9296875 C86.21013672 26.05632812 85.58042969 27.18296875 84.93164062 28.34375 C84.2670505 29.52090302 83.60233694 30.69798636 82.9375 31.875 C82.30650391 33.00164062 81.67550781 34.12828125 81.02539062 35.2890625 C79.38472758 38.21609809 77.73954503 41.14048083 76.0914917 44.06335449 C74.05970226 47.66838044 72.03226963 51.27585818 70.00390625 54.8828125 C68.66935443 57.25525537 67.33467659 59.62762731 66 62 C60.34000977 62.02467467 54.68005068 62.04284788 49.02001953 62.05493164 C47.09358169 62.05996787 45.16714769 62.06679712 43.24072266 62.07543945 C40.47557632 62.08753608 37.71048042 62.09323533 34.9453125 62.09765625 C33.6483696 62.10539818 33.6483696 62.10539818 32.32522583 62.11329651 C26.22774341 62.11387171 26.22774341 62.11387171 24 61 C24 60.34 24 59.68 24 59 C25.06605469 58.48695313 26.13210938 57.97390625 27.23046875 57.4453125 C31.31250326 55.1001175 33.23402926 52.00820197 35.3125 47.875 C36.07259102 46.44644127 36.83302124 45.01806298 37.59375 43.58984375 C37.98304688 42.84331543 38.37234375 42.09678711 38.7734375 41.32763672 C40.88252675 37.32523686 43.10512173 33.38624991 45.3125 29.4375 C46.46590954 27.35640242 47.61856856 25.27489186 48.77075195 23.19311523 C50.49447059 20.11780948 52.25089305 17.06093716 54 14 C29.25 13.505 29.25 13.505 4 13 C0 2 0 2 0 0 Z " fill="#FBFBFB" transform="translate(411,444)"/>
<path d="M0 0 C4.14805318 0.19568116 8.29829202 0.28140633 12.449646 0.37689209 C20.57092408 0.57966909 28.68147937 0.90307596 36.79534912 1.30462646 C35.19403672 5.41816065 33.27744944 9.24761296 31.13519287 13.10150146 C30.78525772 13.73574036 30.43532257 14.36997925 30.07478333 15.0234375 C29.33906613 16.35540284 28.60193485 17.68658798 27.86346436 19.01702881 C26.7297758 21.0601652 25.60110496 23.10601307 24.4730835 25.15228271 C23.75657975 26.44801777 23.03979289 27.74359631 22.32269287 29.03900146 C21.9841478 29.65249451 21.64560272 30.26598755 21.29679871 30.89807129 C18.91110042 35.18887517 18.91110042 35.18887517 17.79534912 36.30462646 C15.61729193 36.39891989 13.43613632 36.42205184 11.25604248 36.41815186 C10.57314651 36.41829788 9.89025055 36.41844391 9.18666077 36.41859436 C6.91947298 36.41789523 4.65236639 36.41010287 2.38519287 36.40228271 C0.81720525 36.40041854 -0.75078295 36.39899463 -2.31877136 36.397995 C-6.45341591 36.39416981 -10.58802554 36.38433952 -14.72265625 36.37329102 C-18.93865486 36.36307691 -23.1546591 36.35849738 -27.3706665 36.35345459 C-35.64867735 36.34271725 -43.92665978 36.32564083 -52.20465088 36.30462646 C-50.38869969 32.54038793 -48.54449364 28.81169989 -46.57696533 25.12420654 C-44.86270144 21.82379405 -43.60548947 18.59480175 -42.4788208 15.05340576 C-35.40123151 -4.35928432 -17.42675778 -0.90907596 0 0 Z " fill="#000000" transform="translate(791.2046508789063,457.69537353515625)"/>
</svg>
